<?xml version="1.0" encoding="utf-8"?>
<!-- Generator: Adobe Illustrator 23.0.1, SVG Export Plug-In . SVG Version: 6.00 Build 0)  -->
<svg version="1.1" id="メイン" xmlns="http://www.w3.org/2000/svg" xmlns:xlink="http://www.w3.org/1999/xlink" x="0px" y="0px"
	 viewBox="0 0 331 31.4" style="enable-background:new 0 0 331 31.4;" xml:space="preserve">
<style type="text/css">
	.st0{fill:#FFFFFF;}
</style>
<g>
	<g>
		<g>
			<g>
				<path class="st0" d="M327,7.5h-3.8c1.4,3.8,4.1,6,7.7,7.4v-3.5C329,10.7,327.7,9.3,327,7.5z"/>
				<path class="st0" d="M311.1,11.4v3.5c3.6-1.3,6.3-3.5,7.7-7.4H315C314.3,9.3,313,10.7,311.1,11.4z"/>
				<path class="st0" d="M331,27.5c-2.9-0.5-5.4-1.5-7.5-3c2.5-2.7,4.3-6.1,5.1-10h-3.6c-0.6,3.1-2,5.7-3.9,7.8
					c-1.9-2.1-3.2-4.7-3.8-7.8h-3.6c0.8,3.8,2.5,7.2,4.9,10c-2.2,1.5-4.9,2.6-7.9,3.1v3.7c4-0.7,7.5-2.3,10.4-4.5
					c2.8,2.2,6.1,3.8,10,4.5V27.5z"/>
				<path class="st0" d="M311.1,16.6c-1.2-1.1-2.7-3.2-3.5-5.9V9.4h3.5v-3h-3.5V0.3h-3.4v6.1H300v3h4c-0.7,3.2-2.4,7-4.2,9v5.5
					c1.8-1.8,3.6-4.7,4.3-7.5v14.5h3.4V15.7c0.7,2.5,2.2,4.6,3.5,6.1V16.6z"/>
				<polygon class="st0" points="330.7,3.2 322.9,3.2 322.9,0.3 319.3,0.3 319.3,3.2 311.1,3.2 311.1,6.1 330.7,6.1 				"/>
			</g>
		</g>
		<g>
			<g>
				<polygon class="st0" points="197.8,2.3 197.8,0.3 193.9,0.3 193.9,2.3 180.5,2.3 180.5,5.1 211.2,5.1 211.2,2.3 				"/>
				<path class="st0" d="M184.3,6.8V14h23.1V6.8H184.3z M204,11.6c-1.9,0-14.3,0-16.2,0c0-0.9,0-1.5,0-2.5c1.9,0,14.3,0,16.2,0
					C204,10.1,204,10.7,204,11.6z"/>
				<path class="st0" d="M181.1,30.9h3.7c0,0,0-10.3,0-12.5c2.4,0,19.7,0,22.1,0c0,2.1,0,8.2,0,8.2c0,0.9-0.4,1.5-1.4,1.5h-2v-7.7
					h-15.6v8h14.5v2.6h3.5c2.9,0,4.6-1.3,4.6-4.4V15.7h-29.4V30.9z M200,25.9c-1.8,0-6.9,0-8.6,0c0-1,0-2.2,0-3.2c1.8,0,6.9,0,8.6,0
					C200,23.7,200,24.8,200,25.9z"/>
			</g>
		</g>
		<g>
			<g>
				<path class="st0" d="M225.9,5.3h1.2c0.4,1,0.6,1.8,1,3.1h3.5c-0.4-1.2-0.8-2.2-1.3-3.1h4.7V2.7h-7.3c0.4-0.8,0.8-1.5,1.1-2.4
					h-3.5c-0.9,2.4-2.8,4.5-5,5.7v3.6C222.6,8.5,224.5,7,225.9,5.3z"/>
				<path class="st0" d="M223.9,27.1c3.1,0.6,5,1,8.1,2.1v-3.9c-3-0.8-4.8-1.1-8.1-1.6V27.1z"/>
				<path class="st0" d="M251,2.7h-9.1c0.4-0.7,0.8-1.5,1-2.4h-3.5c-0.5,1.8-1.9,4-3.6,4.9v3.1h-1.9v1.4h-12.4v2.7H234v2.4h-13.6
					v2.9H243v2.4h-22.2v2.8h22.2v3.1c0,1.3-0.7,1.8-2.5,1.8h-4.1v3.2h4.8c3.8,0,5.5-1.5,5.5-4.6v-3.5h4.1v-2.8h-4.1v-2.4h4.5v-2.9
					h-13.6v-2.4h12.9V9.7h-12.9V8.3h-1.3c1.5-0.8,2.8-1.8,3.9-3h2.8c0.4,1,0.7,1.8,1,3.1h3.7c-0.4-1.2-0.9-2.2-1.4-3.1h4.8V2.7z"/>
			</g>
		</g>
		<g>
			<g>
				<path class="st0" d="M291.1,19.5h-13.2v-1.5c5.3-0.9,7.9-3.9,8.4-7.9h-20.8v3h15.7c-1.2,1.9-4,2.9-6.9,2.9v3.5h-14.3v3.1h14.3
					v3.6c0,0.9-0.4,1.1-1.4,1.1h-5.2v3.6h6.2c2.4,0,4-1.5,4-3.9v-4.4h13.2V19.5z"/>
				<path class="st0" d="M286.3,4.4c0.8-1.3,1.5-2.7,2.1-4h-4.1c-0.5,1.4-1,2.6-1.8,4h-5.3c-0.4-1.5-0.8-2.7-1.2-4.1h-3.8
					c0.6,1.5,1,2.7,1.4,4.1h-5.5c-0.5-1.5-1-2.8-1.6-4.1h-3.9c0.8,1.6,1.3,2.7,1.8,4.1h-4.4v8h3.6c0,0,0-3.3,0-5c2.5,0,21,0,23.5,0
					c0,1.8,0,5,0,5h3.5v-8H286.3z"/>
			</g>
		</g>
	</g>
	<g>
		<g>
			<g>
				<path class="st0" d="M60.8,8.7h3.4c-0.4-1.4-0.9-2.6-1.5-3.7h-3.2C60.1,6.3,60.4,7.4,60.8,8.7z"/>
				<path class="st0" d="M66.4,4.8c0.8,1.6,1.4,3,2.1,5.1h3.4c-0.6-2-1.2-3.4-2.1-5.1H66.4z"/>
				<path class="st0" d="M51.1,13.6V9.9h3C55,8.4,55.8,6.6,56.4,5h-3.1c-0.5,1.6-1.2,3.1-2.2,4.6V1.4h-9.6v12.2h4v13.3
					C45,26.9,44.5,27,44,27c0-2.4,0-11,0-11h-2.7v14.1c3.9-0.3,7.1-0.9,9.7-2.1v-3c-0.9,0.4-1.7,0.8-2.6,1.1v-5.3H51v-3.1h-2.6v-4.1
					H51.1z M44.5,10.7c0-1.7,0-4.7,0-6.4c1.3,0,2.3,0,3.6,0c0,1.7,0,4.7,0,6.4C46.8,10.7,45.8,10.7,44.5,10.7z"/>
				<path class="st0" d="M71.1,3.1V0c-2.5,0.8-6.2,1.4-12.7,1.4h-5.8v2.7h7C65.3,4.1,69.2,3.7,71.1,3.1z"/>
				<path class="st0" d="M64.1,23.9h7.5v-2.7h-8.3c0-0.4-0.1-0.8-0.1-1.2v-1.3c1.9-0.2,3.6-0.5,5-0.9c0.1,0.5,0.2,0.9,0.4,1.5H72
					c-0.6-2.8-1.4-4.8-2.7-7.3h-3.4c0.6,1.3,1.2,2.4,1.6,3.6c-1.9,0.5-4.3,0.9-7.3,1c2-1.6,4.8-4.9,5.8-6.7h-3.8
					c-0.5,0.9-1.3,2.1-2.3,3.3l-2.5-1.1c1-1.3,1.9-2.8,2.5-4.1h-3.2c-0.7,1.5-2,3.7-3.2,5.2l4.8,2c-0.5,0.5-0.9,1-1.3,1.4
					c-0.2,0-0.4,0-0.6,0H52v2.8h2.4c1.8,0,3.8-0.1,5.6-0.2v1c0,0.4,0,0.8-0.1,1.2h-8v2.7h7.2c-1.3,2.8-4.1,4-7.5,4V31
					c4.8,0,8.7-2.4,9.9-6.4c1.2,4,5.3,6.4,10,6.4V28C68.5,28,65.5,26.8,64.1,23.9z"/>
			</g>
		</g>
		<g>
			<path class="st0" d="M111.2,5.7H98V0.3h-3.9v5.4h-13v16.9h13v8.4H98v-8.4h13.2V5.7z M84.8,19.3c0-2.3,0-8.1,0-10.3
				c1.3,0,5.1,0,9.3,0v10.3C89.9,19.3,86,19.3,84.8,19.3z M107.5,19.3c-1.3,0-5.2,0-9.5,0V9c4.3,0,8.2,0,9.5,0
				C107.5,11.2,107.5,17,107.5,19.3z"/>
		</g>
		<g>
			<g>
				<path class="st0" d="M151.5,19.5h-13.2v-1.5c5.3-0.9,7.9-3.9,8.4-7.9H126v3h15.7c-1.2,1.9-4,2.9-7,2.9v3.5h-14.3v3.1h14.3v3.6
					c0,0.9-0.4,1.1-1.4,1.1h-5.2v3.6h6.2c2.4,0,4-1.5,4-3.9v-4.4h13.2V19.5z"/>
				<path class="st0" d="M146.8,4.4c0.8-1.3,1.5-2.7,2.1-4h-4.1c-0.5,1.4-1,2.6-1.8,4h-5.3c-0.4-1.5-0.8-2.7-1.2-4.1h-3.8
					c0.6,1.5,1,2.7,1.4,4.1h-5.5c-0.5-1.5-1-2.8-1.6-4.1h-3.9c0.8,1.6,1.3,2.7,1.8,4.1h-4.4v8h3.6c0,0,0-3.3,0-5c2.5,0,21,0,23.5,0
					c0,1.8,0,5,0,5h3.5v-8H146.8z"/>
			</g>
		</g>
		<g>
			<g>
				<path class="st0" d="M28.9,24.1v2.4c0,0.6-0.3,0.9-1,0.3c-0.8-0.6-1.8-1.6-2.8-3.2c3.4-3.8,5.5-8.6,6-13.8h-3.5
					c-0.3,3.8-1.7,7.5-4.1,10.5c-1-2.9-1.4-6.6-1.4-11.9V8c5.2,0,9.6,0,9.6,0V4.7h-9.6V0.3h-3.7v4.4H2.8V14c0,6.2-0.9,10.2-2.8,14
					l2.5,3.4c2.3-3.8,3.7-9.5,3.8-16.8c1.7,0,4.5,0,6.1,0c0,0.9,0,2.2,0,2.2c0,2.7-0.4,4.3-1.4,5.4c-0.8,0.9-2,1.5-4.1,1.9v3.8
					c3.6-0.8,5.4-1.8,6.8-3.4c1.6-1.7,2.2-4.1,2.2-7.7v-5.4H6.2c0-1.2,0-2.5,0-3.5C7.6,8,13,8,18.5,8v0.5c0,6.8,0.7,11.1,2.4,14.6
					c-2.6,2.2-5.8,3.7-8.8,4.4v3.4c3.8-0.8,7.5-2.5,10.5-4.9c2.2,3.2,4.6,5,6.7,5c1.1,0,2-0.6,2.4-1.5c0.3-0.6,0.3-1.3,0.3-2v-3.4
					H28.9z"/>
				<rect x="24.5" y="0.6" class="st0" width="5.5" height="2.9"/>
			</g>
		</g>
	</g>
	<path class="st0" d="M166,18.8c-2,0-3.6-1.6-3.6-3.6c0-1.9,1.6-3.5,3.6-3.5c1.9,0,3.5,1.6,3.5,3.5C169.5,17.2,168,18.8,166,18.8z"
		/>
</g>
</svg>
